<svg width="260" height="40" viewBox="0 0 260 40" fill="none" xmlns="http://www.w3.org/2000/svg">
<path d="M3.88672 23.875L17.3828 29.3438V33.1719L1.40625 25.7695V23.5234L3.88672 23.875ZM17.3828 19.3828L3.90625 24.9297L1.40625 25.2031V22.9375L17.3828 15.5547V19.3828ZM41.8555 20.1445V24.7148H27.0117V20.1445H41.8555ZM28.75 8.5625V37H22.8906V8.5625H28.75ZM46.0352 8.5625V37H40.1953V8.5625H46.0352ZM61.3867 31.0625L68.0859 8.5625H74.6094L64.707 37H60.4102L61.3867 31.0625ZM55.2148 8.5625L61.8945 31.0625L62.9102 37H58.5742L48.7305 8.5625H55.2148ZM96.3477 32.4297V37H81.2109V32.4297H96.3477ZM83.125 8.5625V37H77.2656V8.5625H83.125ZM94.375 20.1445V24.5977H81.2109V20.1445H94.375ZM96.3281 8.5625V13.1523H81.2109V8.5625H96.3281ZM104.59 8.5625L109.941 18.4844L115.293 8.5625H121.992L113.73 22.6641L122.207 37H115.449L109.941 26.8828L104.434 37H97.6367L106.133 22.6641L97.8516 8.5625H104.59ZM143.164 33.9336V37H128.945V33.9336H143.164ZM129.688 8.5625V37H125.918V8.5625H129.688ZM158.398 11.082L148.984 37H145.137L155.977 8.5625H158.457L158.398 11.082ZM166.289 37L156.855 11.082L156.797 8.5625H159.277L170.156 37H166.289ZM165.801 26.4727V29.5586H149.824V26.4727H165.801ZM184.102 23.6992H176.895L176.855 20.6719H183.398C184.479 20.6719 185.423 20.4896 186.23 20.125C187.038 19.7604 187.663 19.2396 188.105 18.5625C188.561 17.8724 188.789 17.0521 188.789 16.1016C188.789 15.0599 188.587 14.2135 188.184 13.5625C187.793 12.8984 187.188 12.4167 186.367 12.1172C185.56 11.8047 184.531 11.6484 183.281 11.6484H177.734V37H173.965V8.5625H183.281C184.74 8.5625 186.042 8.71224 187.188 9.01172C188.333 9.29818 189.303 9.75391 190.098 10.3789C190.905 10.9909 191.517 11.7721 191.934 12.7227C192.35 13.6732 192.559 14.8125 192.559 16.1406C192.559 17.3125 192.259 18.3737 191.66 19.3242C191.061 20.2617 190.228 21.0299 189.16 21.6289C188.105 22.2279 186.868 22.612 185.449 22.7812L184.102 23.6992ZM183.926 37H175.41L177.539 33.9336H183.926C185.124 33.9336 186.139 33.7253 186.973 33.3086C187.819 32.8919 188.464 32.306 188.906 31.5508C189.349 30.7826 189.57 29.8776 189.57 28.8359C189.57 27.7812 189.382 26.8698 189.004 26.1016C188.626 25.3333 188.034 24.7409 187.227 24.3242C186.419 23.9076 185.378 23.6992 184.102 23.6992H178.73L178.77 20.6719H186.113L186.914 21.7656C188.281 21.8828 189.44 22.2734 190.391 22.9375C191.341 23.5885 192.064 24.4219 192.559 25.4375C193.066 26.4531 193.32 27.5729 193.32 28.7969C193.32 30.5677 192.93 32.0651 192.148 33.2891C191.38 34.5 190.293 35.4245 188.887 36.0625C187.48 36.6875 185.827 37 183.926 37ZM214.043 29.8125C214.043 29.1484 213.939 28.5625 213.73 28.0547C213.535 27.5339 213.184 27.0651 212.676 26.6484C212.181 26.2318 211.491 25.8346 210.605 25.457C209.733 25.0794 208.626 24.6953 207.285 24.3047C205.879 23.888 204.609 23.4258 203.477 22.918C202.344 22.3971 201.374 21.8047 200.566 21.1406C199.759 20.4766 199.141 19.7148 198.711 18.8555C198.281 17.9961 198.066 17.013 198.066 15.9062C198.066 14.7995 198.294 13.7773 198.75 12.8398C199.206 11.9023 199.857 11.0885 200.703 10.3984C201.562 9.69531 202.585 9.14844 203.77 8.75781C204.954 8.36719 206.276 8.17188 207.734 8.17188C209.87 8.17188 211.68 8.58203 213.164 9.40234C214.661 10.2096 215.801 11.2708 216.582 12.5859C217.363 13.888 217.754 15.2812 217.754 16.7656H214.004C214.004 15.6979 213.776 14.7539 213.32 13.9336C212.865 13.1003 212.174 12.4492 211.25 11.9805C210.326 11.4987 209.154 11.2578 207.734 11.2578C206.393 11.2578 205.286 11.4596 204.414 11.8633C203.542 12.2669 202.891 12.8138 202.461 13.5039C202.044 14.194 201.836 14.9818 201.836 15.8672C201.836 16.4661 201.96 17.013 202.207 17.5078C202.467 17.9896 202.865 18.4388 203.398 18.8555C203.945 19.2721 204.635 19.6562 205.469 20.0078C206.315 20.3594 207.324 20.6979 208.496 21.0234C210.111 21.4792 211.504 21.987 212.676 22.5469C213.848 23.1068 214.811 23.7383 215.566 24.4414C216.335 25.1315 216.901 25.9193 217.266 26.8047C217.643 27.6771 217.832 28.6667 217.832 29.7734C217.832 30.9323 217.598 31.9805 217.129 32.918C216.66 33.8555 215.99 34.6562 215.117 35.3203C214.245 35.9844 213.197 36.4987 211.973 36.8633C210.762 37.2148 209.408 37.3906 207.91 37.3906C206.595 37.3906 205.299 37.2083 204.023 36.8438C202.76 36.4792 201.608 35.9323 200.566 35.2031C199.538 34.474 198.711 33.5755 198.086 32.5078C197.474 31.4271 197.168 30.1771 197.168 28.7578H200.918C200.918 29.7344 201.107 30.5742 201.484 31.2773C201.862 31.9674 202.376 32.5404 203.027 32.9961C203.691 33.4518 204.44 33.7904 205.273 34.0117C206.12 34.2201 206.999 34.3242 207.91 34.3242C209.225 34.3242 210.339 34.1419 211.25 33.7773C212.161 33.4128 212.852 32.8919 213.32 32.2148C213.802 31.5378 214.043 30.737 214.043 29.8125ZM234.668 8.5625L222.812 39.4414H219.707L231.582 8.5625H234.668ZM252.383 24.6562L238.496 19.2461V15.5156L255.176 22.8984V25.1836L252.383 24.6562ZM238.496 29.4219L252.422 23.8945L255.176 23.4844V25.75L238.496 33.1523V29.4219Z" fill="white"/>
</svg>
