<svg width="397" height="68" viewBox="0 0 397 68" fill="none" xmlns="http://www.w3.org/2000/svg">
<path d="M6.02441 37.6562L26.9434 46.1328V52.0664L2.17969 40.5928V37.1113L6.02441 37.6562ZM26.9434 30.6934L6.05469 39.291L2.17969 39.7148V36.2031L26.9434 24.7598V30.6934ZM64.876 31.874V38.958H41.8682V31.874H64.876ZM44.5625 13.9219V58H35.4805V13.9219H44.5625ZM71.3545 13.9219V58H62.3027V13.9219H71.3545ZM95.1494 48.7969L105.533 13.9219H115.645L100.296 58H93.6357L95.1494 48.7969ZM85.583 13.9219L95.9365 48.7969L97.5107 58H90.79L75.5322 13.9219H85.583ZM149.339 50.916V58H125.877V50.916H149.339ZM128.844 13.9219V58H119.762V13.9219H128.844ZM146.281 31.874V38.7764H125.877V31.874H146.281ZM149.309 13.9219V21.0361H125.877V13.9219H149.309ZM162.114 13.9219L170.409 29.3008L178.704 13.9219H189.088L176.282 35.7793L189.421 58H178.946L170.409 42.3184L161.872 58H151.337L164.506 35.7793L151.67 13.9219H162.114ZM221.904 53.2471V58H199.865V53.2471H221.904ZM201.016 13.9219V58H195.173V13.9219H201.016ZM245.518 17.8271L230.926 58H224.962L241.764 13.9219H245.608L245.518 17.8271ZM257.748 58L243.126 17.8271L243.035 13.9219H246.88L263.742 58H257.748ZM256.991 41.6826V46.4658H232.228V41.6826H256.991ZM285.357 37.3838H274.187L274.126 32.6914H284.268C285.943 32.6914 287.406 32.4089 288.657 31.8438C289.909 31.2786 290.877 30.4714 291.563 29.4219C292.27 28.3522 292.623 27.0807 292.623 25.6074C292.623 23.9928 292.31 22.681 291.685 21.6719C291.079 20.6426 290.141 19.8958 288.869 19.4316C287.618 18.9473 286.023 18.7051 284.086 18.7051H275.488V58H269.646V13.9219H284.086C286.346 13.9219 288.365 14.154 290.141 14.6182C291.917 15.0622 293.42 15.7686 294.651 16.7373C295.903 17.6859 296.851 18.8968 297.497 20.3701C298.143 21.8434 298.466 23.6094 298.466 25.668C298.466 27.4844 298.002 29.1292 297.073 30.6025C296.145 32.0557 294.853 33.2464 293.198 34.1748C291.563 35.1032 289.646 35.6986 287.446 35.9609L285.357 37.3838ZM285.085 58H271.886L275.186 53.2471H285.085C286.942 53.2471 288.516 52.9242 289.808 52.2783C291.119 51.6325 292.118 50.7243 292.805 49.5537C293.491 48.363 293.834 46.9603 293.834 45.3457C293.834 43.7109 293.541 42.2982 292.956 41.1074C292.371 39.9167 291.452 38.9984 290.201 38.3525C288.95 37.7067 287.335 37.3838 285.357 37.3838H277.032L277.093 32.6914H288.476L289.717 34.3867C291.836 34.5684 293.632 35.1738 295.105 36.2031C296.579 37.2122 297.699 38.5039 298.466 40.0781C299.253 41.6523 299.646 43.388 299.646 45.2852C299.646 48.0299 299.041 50.3509 297.83 52.248C296.639 54.125 294.954 55.5579 292.774 56.5469C290.595 57.5156 288.032 58 285.085 58ZM331.767 46.8594C331.767 45.8301 331.605 44.9219 331.282 44.1348C330.979 43.3275 330.435 42.6009 329.647 41.9551C328.881 41.3092 327.811 40.6937 326.438 40.1084C325.086 39.5231 323.371 38.9277 321.292 38.3223C319.112 37.6764 317.145 36.96 315.389 36.1729C313.633 35.3656 312.129 34.4473 310.878 33.418C309.627 32.3887 308.668 31.208 308.002 29.876C307.336 28.5439 307.003 27.0202 307.003 25.3047C307.003 23.5892 307.356 22.0049 308.062 20.5518C308.769 19.0986 309.778 17.8372 311.09 16.7676C312.422 15.6777 314.006 14.8301 315.843 14.2246C317.679 13.6191 319.728 13.3164 321.988 13.3164C325.298 13.3164 328.104 13.9521 330.404 15.2236C332.725 16.4749 334.491 18.1198 335.702 20.1582C336.913 22.1764 337.519 24.3359 337.519 26.6367H331.706C331.706 24.9818 331.353 23.5186 330.646 22.2471C329.94 20.9554 328.87 19.9463 327.438 19.2197C326.005 18.473 324.188 18.0996 321.988 18.0996C319.91 18.0996 318.194 18.4124 316.842 19.0381C315.49 19.6637 314.48 20.5114 313.814 21.5811C313.169 22.6507 312.846 23.8717 312.846 25.2441C312.846 26.1725 313.037 27.0202 313.421 27.7871C313.825 28.5339 314.44 29.2301 315.268 29.876C316.115 30.5218 317.185 31.1172 318.477 31.6621C319.788 32.207 321.353 32.7318 323.169 33.2363C325.672 33.9427 327.831 34.7298 329.647 35.5977C331.464 36.4655 332.957 37.4443 334.128 38.5342C335.319 39.6038 336.197 40.8249 336.762 42.1973C337.347 43.5495 337.64 45.0833 337.64 46.7988C337.64 48.5951 337.276 50.2197 336.55 51.6729C335.823 53.126 334.784 54.3672 333.432 55.3965C332.079 56.4258 330.455 57.223 328.558 57.7881C326.681 58.333 324.582 58.6055 322.261 58.6055C320.222 58.6055 318.214 58.3229 316.236 57.7578C314.279 57.1927 312.493 56.3451 310.878 55.2148C309.284 54.0846 308.002 52.6921 307.033 51.0371C306.085 49.362 305.61 47.4245 305.61 45.2246H311.423C311.423 46.7383 311.715 48.04 312.301 49.1299C312.886 50.1995 313.683 51.0876 314.692 51.7939C315.722 52.5003 316.882 53.0251 318.174 53.3682C319.486 53.6911 320.848 53.8525 322.261 53.8525C324.299 53.8525 326.025 53.57 327.438 53.0049C328.85 52.4398 329.92 51.6325 330.646 50.583C331.393 49.5335 331.767 48.2923 331.767 46.8594ZM363.735 13.9219L345.359 61.7842H340.546L358.952 13.9219H363.735ZM391.193 38.8672L369.669 30.4814V24.6992L395.522 36.1426V39.6846L391.193 38.8672ZM369.669 46.2539L391.254 37.6865L395.522 37.0508V40.5625L369.669 52.0361V46.2539Z" fill="#10486D"/>
</svg>
